<?xml version="1.0" standalone="no"?>
<!DOCTYPE svg PUBLIC "-//W3C//DTD SVG 20010904//EN"
 "http://www.w3.org/TR/2001/REC-SVG-20010904/DTD/svg10.dtd">
<svg version="1.0" xmlns="http://www.w3.org/2000/svg"
 width="752.000000pt" height="752.000000pt" viewBox="0 0 752.000000 752.000000"
 preserveAspectRatio="xMidYMid meet">

<g transform="translate(0.000000,752.000000) scale(0.100000,-0.100000)"
fill="#000000" stroke="none">
<path d="M3722 5991 c-51 -19 -136 -75 -162 -106 -8 -9 -30 -15 -60 -15 -26 0
-87 -7 -136 -15 -320 -56 -678 -277 -923 -571 -210 -252 -316 -467 -366 -739
-27 -153 -88 -259 -153 -271 -21 -3 -65 -20 -100 -37 -54 -26 -70 -29 -120
-24 -32 2 -86 16 -120 30 -34 13 -62 23 -62 20 0 -10 46 -94 86 -155 l43 -68
-11 -84 c-13 -105 2 -314 32 -431 44 -175 145 -311 259 -352 l49 -17 -41 -59
c-107 -153 -255 -227 -361 -183 -22 9 -41 15 -43 13 -7 -8 18 -155 38 -214 69
-208 248 -333 477 -333 65 0 68 -1 86 -30 9 -17 41 -55 70 -84 85 -88 165
-117 249 -92 l47 14 54 -82 c63 -95 206 -236 289 -285 99 -58 181 -83 292 -88
97 -5 101 -4 124 21 l24 25 48 -40 c71 -59 156 -107 231 -130 61 -19 88 -20
310 -17 210 3 249 6 288 22 89 38 187 111 303 226 l119 117 75 -24 c114 -36
246 -56 368 -57 95 0 121 4 190 28 229 79 460 278 642 554 110 167 181 353
144 376 -6 4 -40 -4 -75 -18 -73 -29 -131 -33 -163 -11 -12 8 -70 85 -128 171
-99 145 -142 224 -128 238 4 3 22 6 42 6 110 1 249 61 331 143 59 59 127 188
136 260 l7 47 -55 -24 c-66 -29 -166 -49 -205 -41 -55 13 -55 13 -39 37 25 39
64 170 71 238 13 126 -28 329 -79 399 -49 66 -67 72 -197 65 l-116 -7 -6 34
c-4 19 -11 120 -17 224 -29 513 -37 571 -103 710 -44 92 -113 174 -239 281
-57 49 -139 126 -183 172 -110 115 -112 116 -276 113 -161 -2 -243 13 -454 85
-126 43 -151 48 -245 51 -85 3 -115 0 -158 -16z m-191 -1246 c50 -27 153 -45
340 -60 506 -43 569 -95 799 -655 39 -96 96 -226 126 -289 107 -226 246 -398
377 -466 31 -16 57 -33 57 -36 0 -3 -24 -26 -52 -50 -45 -38 -59 -44 -96 -43
-35 1 -50 7 -81 38 l-38 37 -7 -128 c-19 -361 -85 -627 -189 -763 -94 -122
-274 -331 -365 -423 -111 -113 -167 -157 -245 -193 -56 -25 -56 -25 -309 -22
l-253 3 -56 28 c-130 66 -325 245 -537 492 -144 168 -194 279 -236 525 -14 84
-21 147 -42 398 l-6 63 -39 -36 c-41 -37 -89 -46 -129 -25 -48 26 -150 193
-195 320 l-13 38 51 -14 c166 -44 346 11 497 152 l48 45 -24 -58 c-13 -32 -24
-64 -24 -70 0 -8 -14 -13 -35 -13 l-35 0 0 -49 c0 -49 1 -50 32 -53 29 -3 33
-7 43 -53 34 -149 147 -254 309 -286 114 -23 244 18 331 106 59 58 90 116 107
198 l12 58 69 34 c83 42 156 46 224 15 44 -20 48 -26 78 -120 49 -161 214
-270 386 -258 90 7 201 60 255 121 32 36 79 123 98 180 4 13 16 17 51 17 l45
0 0 50 0 50 -43 0 -43 0 -22 75 c-36 121 -136 222 -257 257 -56 17 -181 13
-235 -6 -105 -38 -216 -150 -235 -236 -4 -16 -10 -32 -14 -34 -4 -3 -30 2 -57
10 -71 22 -175 14 -249 -20 -32 -14 -59 -25 -60 -24 -1 2 -14 30 -29 63 -34
75 -103 147 -181 188 -56 30 -66 32 -166 32 -102 0 -109 -1 -176 -36 l-71 -36
63 96 c149 228 297 588 340 829 22 120 21 118 51 82 15 -17 39 -37 55 -45z"/>
<path d="M3400 2485 l0 -45 405 0 405 0 0 45 0 45 -405 0 -405 0 0 -45z"/>
<path d="M3720 2265 l0 -25 110 0 110 0 0 25 0 25 -110 0 -110 0 0 -25z"/>
</g>
</svg>
